<?xml version="1.0" encoding="utf-8"?>
<!-- Generator: Adobe Illustrator 23.0.1, SVG Export Plug-In . SVG Version: 6.00 Build 0)  -->
<svg version="1.1" id="Layer_1" xmlns="http://www.w3.org/2000/svg" xmlns:xlink="http://www.w3.org/1999/xlink" x="0px" y="0px"
	 viewBox="0 0 1280 1438.11" style="enable-background:new 0 0 1280 1438.11;" xml:space="preserve">
<style type="text/css">
	.st0{fill:#5B76B9;}
	.st1{fill:#969799;}
	.st2{fill:#26C3F0;}
	.st3{fill:#6A2C4F;}
	.st4{fill:#5B76B9;fill-opacity:0.5;}
	.st5{fill:#26C3F0;fill-opacity:0.5;}
	.st6{fill:#6A2C4F;fill-opacity:0.5;}
	.st7{fill:#231F20;}
	.st8{font-family:'GravurLL-CondBlack';}
	.st9{font-size:46px;}
	.st10{fill:none;stroke:#000000;stroke-width:5;stroke-linecap:round;stroke-linejoin:round;stroke-miterlimit:10;}
	.st11{font-family:'GravurLL-CondLight';}
	.st12{font-size:22px;}
	.st13{fill:none;}
	.st14{fill:#FFFFFF;}
	.st15{fill:#929497;}
	.st16{font-family:'GravurLL-CondRegular';}
	.st17{font-size:19px;}
	.st18{fill:none;stroke:#606060;stroke-miterlimit:10;}
	.st19{fill:#FFFFFF;stroke:#211E1F;stroke-width:0.5;stroke-miterlimit:10;}
	.st20{font-family:'GravurLL-CondBold';}
</style>
<g>
	<g>
		<text transform="matrix(1 0 0 1 23.346 77.477)" class="st7 st8 st9">Where does the evidence for countless social bots come from?</text>
	</g>
</g>
<line class="st10" x1="0.04" y1="2.04" x2="1280.04" y2="2.04"/>
<g>
	<text transform="matrix(1 0 0 1 104.1258 1070.3959)" class="st2 st11 st12">15 times</text>
	<text transform="matrix(1 0 0 1 104.1248 938.3478)"><tspan x="0" y="0" class="st2 st8 st9">Southern </tspan><tspan x="0" y="45" class="st2 st8 st9">California</tspan><tspan x="0" y="90" class="st2 st8 st9">/Indiana</tspan></text>
</g>
<g>
	<text transform="matrix(1 0 0 1 203.2528 1345.0256)" class="st3 st11 st12">9 times</text>
	<g>
		<text transform="matrix(1 0 0 1 200.5374 1260.6096)"><tspan x="0" y="0" class="st3 st8 st9">Berkeley</tspan><tspan x="0" y="45" class="st3 st8 st9">/Swansea</tspan></text>
	</g>
</g>
<g>
	<g>
		<text transform="matrix(1 0 0 1 26.8402 476.0366)" class="st0 st11 st12">27 times</text>
		<text transform="matrix(1 0 0 1 26.0827 447.6331)" class="st0 st8 st9">Oxford</text>
	</g>
	<g>
		<rect x="25.83" y="495.67" class="st13" width="199.65" height="93.93"/>
		<text transform="matrix(1 0 0 1 25.8283 511.0749)"><tspan x="0" y="0" class="st7 st11 st12"> &quot;The Computational </tspan><tspan x="0" y="26.4" class="st7 st11 st12">Propaganda Project </tspan><tspan x="0" y="52.8" class="st7 st11 st12">of Oxford University&quot;</tspan></text>
	</g>
</g>
<g>
	<rect y="1401.54" class="st14" width="1280" height="36"/>
	<text transform="matrix(1 0 0 1 37.8309 1424.8635)" class="st15 st16 st17">INFOGRAPHICS GROUP • www.info.graphics • CC BY   </text>
	<path class="st15" d="M16.65,1406.19c-8.28,0-15,6.72-15,15s6.72,15,15,15s15-6.72,15-15S24.93,1406.19,16.65,1406.19z
		 M19.08,1429.74c0,1.35-1.09,2.44-2.44,2.44c-1.35,0-2.44-1.09-2.44-2.44s0.6-2.44,0.6-4.89s-0.6-3.54-0.6-4.89
		c0-1.35,1.09-2.44,2.44-2.44c1.35,0,2.44,1.09,2.44,2.44s-0.6,2.44-0.6,4.89S19.08,1428.39,19.08,1429.74z M16.63,1415.08
		c-1.35,0-2.44-1.09-2.44-2.44s1.09-2.44,2.44-2.44c1.35,0,2.44,1.09,2.44,2.44S17.98,1415.08,16.63,1415.08z"/>
	<line class="st18" x1="0" y1="1401.04" x2="1280" y2="1401.04"/>
</g>
<g>
	<text transform="matrix(1 0 0 1 931.5504 132.9115)"><tspan x="0" y="0" class="st7 st11 st12">Click the media links</tspan><tspan x="0" y="26.4" class="st7 st11 st12">and check the articles</tspan></text>
</g>
<g>
	<text transform="matrix(1 0 0 1 25.8402 132.9116)"><tspan x="0" y="0" class="st7 st11 st12">Number of times the article </tspan><tspan x="0" y="26.4" class="st7 st11 st12">was a reference in the media</tspan></text>
</g>
<g>
	<g>
		<g>
			<path d="M134.98,182.38c-2.59,14.63-6.36,29.34-4.8,44.32c1.83,17.62,11.5,31.63,25.42,42.16c1.28,0.97,2.53-1.2,1.26-2.16
				c-14.28-10.8-23.55-25.51-24.46-43.61c-0.69-13.56,2.64-26.79,4.99-40.05C137.67,181.47,135.26,180.8,134.98,182.38
				L134.98,182.38z"/>
		</g>
	</g>
	<g>
		<g>
			<path d="M136.08,268.64c7.22-0.83,14.34-0.49,21.43,1.15c0.92,0.21,1.79-0.59,1.54-1.54c-1.33-4.89-1.83-9.76-1.51-14.81
				c0.1-1.61-2.4-1.6-2.5,0c-0.33,5.29,0.22,10.37,1.6,15.47c0.51-0.51,1.03-1.03,1.54-1.54c-7.3-1.69-14.65-2.1-22.09-1.24
				C134.5,266.33,134.48,268.83,136.08,268.64L136.08,268.64z"/>
		</g>
	</g>
</g>
<g>
	<g>
		<g>
			<path d="M1128.89,122.94c16.91-0.01,34.17,0.06,50.41,5.38c8.94,2.93,17.44,7.6,23.67,14.78c7.86,9.06,10.62,20.85,10.72,32.6
				c0.01,1.61,2.51,1.61,2.5,0c-0.15-17.18-6.44-33.09-21.17-42.73c-12.84-8.41-28.73-11.09-43.79-12.07
				c-7.44-0.48-14.9-0.46-22.35-0.45C1127.28,120.44,1127.27,122.94,1128.89,122.94L1128.89,122.94z"/>
		</g>
	</g>
	<g>
		<g>
			<path d="M1225.77,161.35c-5.1,3.65-9.24,7.99-11.9,13.71c0.57-0.15,1.14-0.3,1.71-0.45c-5.06-3.88-10.47-7.09-16.24-9.81
				c-1.45-0.68-2.72,1.47-1.26,2.16c5.77,2.72,11.18,5.92,16.24,9.81c0.5,0.39,1.45,0.11,1.71-0.45c2.48-5.33,6.26-9.42,11.01-12.81
				C1228.33,162.58,1227.08,160.41,1225.77,161.35L1225.77,161.35z"/>
		</g>
	</g>
</g>
<g>
	<g>
		<rect x="920" y="202" class="st0" width="280" height="22"/>
		<rect x="920" y="228" class="st0" width="280" height="74"/>
		<rect x="920" y="306" class="st0" width="280" height="22"/>
		<rect x="920" y="332" class="st0" width="280" height="22"/>
		<rect x="920" y="358" class="st0" width="280" height="22"/>
		<rect x="920" y="384" class="st0" width="280" height="22"/>
		<rect x="920" y="410" class="st0" width="280" height="48"/>
		<rect x="920" y="462" class="st0" width="280" height="22"/>
		<rect x="920" y="488" class="st0" width="280" height="22"/>
		<rect x="920" y="514" class="st0" width="280" height="22"/>
		<rect x="920" y="540" class="st0" width="280" height="22"/>
		<rect x="920" y="566" class="st0" width="280" height="22"/>
		<rect x="920" y="592" class="st0" width="280" height="22"/>
		<rect x="920" y="618" class="st1" width="280" height="74"/>
		<rect x="920" y="696" class="st1" width="280" height="48"/>
		<rect x="920" y="748" class="st1" width="280" height="22"/>
		<rect x="920" y="774" class="st1" width="280" height="22"/>
		<rect x="920" y="800" class="st1" width="280" height="74"/>
		<rect x="920" y="878" class="st1" width="280" height="48"/>
		<rect x="920" y="930" class="st2" width="280" height="22"/>
		<rect x="920" y="956" class="st2" width="280" height="22"/>
		<rect x="920" y="982" class="st2" width="280" height="48"/>
		<rect x="920" y="1034" class="st2" width="280" height="22"/>
		<rect x="920" y="1060" class="st2" width="280" height="22"/>
		<rect x="920" y="1086" class="st2" width="280" height="22"/>
		<rect x="920" y="1112" class="st2" width="280" height="22"/>
		<rect x="920" y="1138" class="st1" width="280" height="48"/>
		<rect x="920" y="1190" class="st3" width="280" height="22"/>
		<rect x="920" y="1216" class="st3" width="280" height="48"/>
		<rect x="920" y="1268" class="st3" width="280" height="22"/>
		<rect x="920" y="1294" class="st3" width="280" height="22"/>
		<rect x="920" y="1320" class="st3" width="280" height="22"/>
		<rect x="920" y="1346" class="st3" width="280" height="22"/>
		<rect x="920" y="1372" class="st3" width="280" height="22"/>
	</g>
	<g>
		<path class="st4" d="M226,228v20c355,0,337-24,692-24v-22C563,202,581,228,226,228z"/>
		<path class="st4" d="M226,248v20c355,0,337-18,692-18v-22C563,228,581,248,226,248z"/>
		<path class="st4" d="M226,268v20c355,0,337-12,692-12v-22C563,254,581,268,226,268z"/>
		<path class="st4" d="M226,288v20c355,0,337-6,692-6v-22C563,280,581,288,226,288z"/>
		<path class="st4" d="M226,308v20c355,0,337,0,692,0v-22C563,306,581,308,226,308z"/>
		<path class="st4" d="M226,328v20c355,0,337,6,692,6v-22C563,332,581,328,226,328z"/>
		<path class="st4" d="M226,348v20c355,0,337,12,692,12v-22C563,358,581,348,226,348z"/>
		<path class="st4" d="M226,368v20c355,0,337,18,692,18v-22C563,384,581,368,226,368z"/>
		<path class="st4" d="M226,388v20c355,0,337,24,692,24v-22C563,410,581,388,226,388z"/>
		<path class="st4" d="M226,408v20c355,0,337,30,692,30v-22C563,436,581,408,226,408z"/>
		<path class="st4" d="M226,428v20c355,0,337,36,692,36v-22C563,462,581,428,226,428z"/>
		<path class="st4" d="M226,448v20c355,0,337,42,692,42v-22C563,488,581,448,226,448z"/>
		<path class="st4" d="M226,468v20c355,0,337,48,692,48v-22C563,514,581,468,226,468z"/>
		<path class="st4" d="M226,488v20c355,0,337,54,692,54v-22C563,540,581,488,226,488z"/>
		<path class="st4" d="M226,508v20c355,0,337,60,692,60v-22C563,566,581,508,226,508z"/>
		<path class="st4" d="M226,528v20c355,0,337,66,692,66v-22C563,592,581,528,226,528z"/>
		<path class="st4" d="M226,548v20c355,0,337,72,692,72v-22C563,618,581,548,226,548z"/>
		<path class="st4" d="M226,568v20c355,0,337,78,692,78v-22C563,644,581,568,226,568z"/>
		<path class="st4" d="M226,588v20c355,0,337,86,692,86v-24C563,670,581,588,226,588z"/>
		<path class="st4" d="M226,608v20c355,0,337,90,692,90v-22C563,696,581,608,226,608z"/>
		<path class="st4" d="M226,628v20c355,0,337,98,692,98v-24C563,722,581,628,226,628z"/>
		<path class="st4" d="M226,648v20c355,0,337,104,692,104v-24C563,748,581,648,226,648z"/>
		<path class="st4" d="M226,668v20c355,0,337,110,692,110v-24C563,774,581,668,226,668z"/>
		<path class="st4" d="M226,688v20c355,0,337,114,692,114v-22C563,800,581,688,226,688z"/>
		<path class="st4" d="M226,708v20c355,0,337,122,692,122v-24C563,826,581,708,226,708z"/>
		<path class="st4" d="M226,728v20c355,0,337,152,692,152v-22C563,878,581,728,226,728z"/>
		<path class="st4" d="M226,748v20c355,0,337,392,692,392v-22C563,1138,581,748,226,748z"/>
		<path class="st5" d="M326,828v20c305,0,287-156,592-156v-24C613,668,631,828,326,828z"/>
		<path class="st5" d="M326,848v20c305,0,287-124,592-124v-24C613,720,631,848,326,848z"/>
		<path class="st5" d="M326,868v20c305,0,287-118,592-118v-24C613,746,631,868,326,868z"/>
		<path class="st5" d="M326,888v20c305,0,287-112,592-112v-24C613,772,631,888,326,888z"/>
		<path class="st5" d="M326,908v20c305,0,287-80,592-80v-24C613,824,631,908,326,908z"/>
		<path class="st5" d="M326,928v20c305,0,287-74,592-74v-22C613,852,631,928,326,928z"/>
		<path class="st5" d="M326,948v20c305,0,287-42,592-42v-22C613,904,631,948,326,948z"/>
		<path class="st5" d="M326,968v20c305,0,287-36,592-36v-22C613,930,631,968,326,968z"/>
		<path class="st5" d="M326,988v20c305,0,287-30,592-30v-22C613,956,631,988,326,988z"/>
		<path class="st5" d="M326,1008v20c305,0,287-24,592-24v-22C613,982,631,1008,326,1008z"/>
		<path class="st5" d="M326,1028v20c305,0,287-18,592-18v-22C613,1008,631,1028,326,1028z"/>
		<path class="st5" d="M326,1048v20c305,0,287-12,592-12v-22C613,1034,631,1048,326,1048z"/>
		<path class="st5" d="M326,1068v20c305,0,287-6,592-6v-22C613,1060,631,1068,326,1068z"/>
		<path class="st5" d="M326,1088v20c305,0,287,0,592,0v-22C613,1086,631,1088,326,1088z"/>
		<path class="st5" d="M326,1108v20c305,0,287,6,592,6v-22C613,1112,631,1108,326,1108z"/>
		<path class="st6" d="M426,1188v20c255,0,237-22,492-22v-22C663,1164,681,1188,426,1188z"/>
		<path class="st6" d="M426,1208v20c255,0,237-16,492-16v-22C663,1190,681,1208,426,1208z"/>
		<path class="st6" d="M426,1228v20c255,0,237-10,492-10v-22C663,1216,681,1228,426,1228z"/>
		<path class="st6" d="M426,1248v20c255,0,237-4,492-4v-22C663,1242,681,1248,426,1248z"/>
		<path class="st6" d="M426,1268v20c255,0,237,2,492,2v-22C663,1268,681,1268,426,1268z"/>
		<path class="st6" d="M426,1288v20c255,0,237,8,492,8v-22C663,1294,681,1288,426,1288z"/>
		<path class="st6" d="M426,1308v20c255,0,237,14,492,14v-22C663,1320,681,1308,426,1308z"/>
		<path class="st6" d="M426,1328v20c255,0,237,20,492,20v-22C663,1346,681,1328,426,1328z"/>
		<path class="st6" d="M426,1348v20c255,0,237,26,492,26v-22C663,1372,681,1348,426,1348z"/>
	</g>
	<g>
		<text transform="matrix(1 0 0 1 927.9999 221.0001)" class="st14 st20 st12">ABS-CBN</text>
		<text transform="matrix(1 0 0 1 927.9999 273.0002)" class="st14 st20 st12">BBC</text>
		<text transform="matrix(1 0 0 1 927.9999 325.0001)" class="st14 st20 st12">Buzzfeed</text>
		<text transform="matrix(1 0 0 1 927.9999 351.0001)" class="st14 st20 st12">CBC</text>
		<text transform="matrix(1 0 0 1 927.9999 377.0001)" class="st14 st20 st12">CNET</text>
		<text transform="matrix(1 0 0 1 927.9999 403.0001)" class="st14 st20 st12">Engadget</text>
		<text transform="matrix(1 0 0 1 927.9999 442.0001)" class="st14 st20 st12">Financial Times</text>
		<text transform="matrix(1 0 0 1 927.9999 481.0001)" class="st14 st20 st12">IEEE SPECTRUM</text>
		<text transform="matrix(1 0 0 1 927.9999 507.0001)" class="st14 st20 st12">Independent</text>
		<text transform="matrix(1 0 0 1 927.9999 533)" class="st14 st20 st12">NPR</text>
		<text transform="matrix(1 0 0 1 927.9999 559)" class="st14 st20 st12">NewScientist</text>
		<text transform="matrix(1 0 0 1 927.9999 585)" class="st14 st20 st12">The Atlantic</text>
		<text transform="matrix(1 0 0 1 927.9999 611)" class="st14 st20 st12">The Telegraph</text>
		<text transform="matrix(1 0 0 1 927.9999 663)" class="st14 st20 st12">The New York Times</text>
		<text transform="matrix(1 0 0 1 927.9999 728)" class="st14 st20 st12">The Washington Post</text>
		<text transform="matrix(1 0 0 1 927.9999 767)" class="st14 st20 st12">Forbes</text>
		<text transform="matrix(1 0 0 1 927.9999 793)" class="st14 st20 st12">MOTHERBOARD</text>
		<text transform="matrix(1 0 0 1 927.9999 845)" class="st14 st20 st12">PHYS.ORG</text>
		<text transform="matrix(1 0 0 1 927.9999 910)" class="st14 st20 st12">WIRED</text>
		<text transform="matrix(1 0 0 1 927.9999 948.9999)" class="st14 st20 st12">CNBC</text>
		<text transform="matrix(1 0 0 1 927.9999 974.9999)" class="st14 st20 st12">Fast Company</text>
		<text transform="matrix(1 0 0 1 927.9999 1014)" class="st14 st20 st12">MIT Technology Review</text>
		<text transform="matrix(1 0 0 1 927.9999 1053)" class="st14 st20 st12">Pew Research Center</text>
		<text transform="matrix(1 0 0 1 927.9999 1079)" class="st14 st20 st12">The Conversation</text>
		<text transform="matrix(1 0 0 1 927.9999 1105)" class="st14 st20 st12">The Sun</text>
		<text transform="matrix(1 0 0 1 927.9999 1131)" class="st14 st20 st12">US News</text>
		<text transform="matrix(1 0 0 1 927.9999 1170)" class="st14 st20 st12">The Guardian</text>
		<text transform="matrix(1 0 0 1 927.9999 1209)" class="st14 st20 st12">Bloomberg</text>
		<text transform="matrix(1 0 0 1 927.9999 1248)" class="st14 st20 st12">Businessinsider</text>
		<text transform="matrix(1 0 0 1 927.9999 1286.9999)" class="st14 st20 st12">Mashable</text>
		<text transform="matrix(1 0 0 1 927.9999 1312.9999)" class="st14 st20 st12">TechCrunch</text>
		<text transform="matrix(1 0 0 1 927.9999 1339)" class="st14 st20 st12">The Hill</text>
		<text transform="matrix(1 0 0 1 927.9999 1365.0001)" class="st14 st20 st12">The Sydney Morning Herald</text>
		<text transform="matrix(1 0 0 1 927.9999 1391.0001)" class="st14 st20 st12">The Times</text>
	</g>
	<g>
		<circle id="id0_3_" class="st0" cx="1218" cy="213" r="8"/>
		<circle id="id1_3_" class="st0" cx="1218" cy="239" r="8"/>
		<circle id="id2_3_" class="st0" cx="1218" cy="265" r="8"/>
		<circle id="id3_3_" class="st0" cx="1218" cy="291" r="8"/>
		<circle id="id4_3_" class="st0" cx="1218" cy="317" r="8"/>
		<circle id="id5_3_" class="st0" cx="1218" cy="343" r="8"/>
		<circle id="id6_3_" class="st0" cx="1218" cy="369" r="8"/>
		<circle id="id7_3_" class="st0" cx="1218" cy="395" r="8"/>
		<circle id="id8_3_" class="st0" cx="1218" cy="421" r="8"/>
		<circle id="id9_3_" class="st0" cx="1218" cy="447" r="8"/>
		<circle id="id10_3_" class="st0" cx="1218" cy="473" r="8"/>
		<circle id="id11_3_" class="st0" cx="1218" cy="499" r="8"/>
		<circle id="id12_3_" class="st0" cx="1218" cy="551" r="8"/>
		<circle id="id13_3_" class="st0" cx="1218" cy="525" r="8"/>
		<circle id="id14_3_" class="st0" cx="1218" cy="811" r="8"/>
		<circle id="id15_3_" class="st0" cx="1218" cy="577" r="8"/>
		<circle id="id16_3_" class="st0" cx="1218" cy="1149" r="8"/>
		<circle id="id17_3_" class="st0" cx="1218" cy="629" r="8"/>
		<circle id="id18_3_" class="st0" cx="1218" cy="655" r="8"/>
		<circle id="id19_3_" class="st0" cx="1218" cy="603" r="8"/>
		<circle id="id20_3_" class="st0" cx="1218" cy="707" r="8"/>
		<circle id="id21_3_" class="st0" cx="1218" cy="889" r="8"/>
		<circle id="id22_3_" class="st1" cx="1218" cy="759" r="8"/>
		<circle id="id23_3_" class="st1" cx="1218" cy="785" r="8"/>
		<circle id="id24_3_" class="st1" cx="1218" cy="837" r="8"/>
		<circle id="id25_3_" class="st1" cx="1218" cy="681" r="8"/>
		<circle id="id26_3_" class="st1" cx="1218" cy="733" r="8"/>
		<circle id="id27_3_" class="st2" cx="1218" cy="941" r="8"/>
		<circle id="id28_3_" class="st2" cx="1218" cy="967" r="8"/>
		<circle id="id29_3_" class="st2" cx="1218" cy="993" r="8"/>
		<circle id="id30_3_" class="st2" cx="1218" cy="1019" r="8"/>
		<circle id="id31_3_" class="st2" cx="1218" cy="1045" r="8"/>
		<circle id="id32_3_" class="st2" cx="1218" cy="863" r="8"/>
		<circle id="id33_3_" class="st2" cx="1218" cy="1071" r="8"/>
		<circle id="id34_3_" class="st2" cx="1218" cy="1097" r="8"/>
		<circle id="id35_3_" class="st2" cx="1218" cy="1123" r="8"/>
		<circle id="id36_3_" class="st2" cx="1218" cy="915" r="8"/>
		<circle id="id37_3_" class="st3" cx="1218" cy="1201" r="8"/>
		<circle id="id38_3_" class="st3" cx="1218" cy="1227" r="8"/>
		<circle id="id39_3_" class="st3" cx="1218" cy="1253" r="8"/>
		<circle id="id40_3_" class="st3" cx="1218" cy="1279" r="8"/>
		<circle id="id41_3_" class="st3" cx="1218" cy="1305" r="8"/>
		<circle id="id42_3_" class="st3" cx="1218" cy="1175" r="8"/>
		<circle id="id43_3_" class="st3" cx="1218" cy="1331" r="8"/>
		<circle id="id44_3_" class="st3" cx="1218" cy="1357" r="8"/>
		<circle id="id45_3_" class="st3" cx="1218" cy="1383" r="8"/>
	</g>
	<rect x="216" y="228" class="st0" width="10" height="540"/>
	<rect x="316" y="828" class="st2" width="10" height="300"/>
	<rect x="416" y="1188" class="st3" width="10" height="180"/>
</g>
</svg>
